<svg id="visual" viewBox="0 0 2160 2160" width="2160" height="2160" xmlns="http://www.w3.org/2000/svg" xmlns:xlink="http://www.w3.org/1999/xlink" version="1.1"><rect x="0" y="0" width="2160" height="2160" fill="#002233"></rect><path d="M0 1645L51.5 1629.8C103 1614.7 206 1584.3 308.8 1560.7C411.7 1537 514.3 1520 617.2 1488.8C720 1457.7 823 1412.3 925.8 1457.5C1028.7 1502.7 1131.3 1638.3 1234.2 1703.8C1337 1769.3 1440 1764.7 1542.8 1743.8C1645.7 1723 1748.3 1686 1851.2 1646C1954 1606 2057 1563 2108.5 1541.5L2160 1520L2160 2161L2108.5 2161C2057 2161 1954 2161 1851.2 2161C1748.3 2161 1645.7 2161 1542.8 2161C1440 2161 1337 2161 1234.2 2161C1131.3 2161 1028.7 2161 925.8 2161C823 2161 720 2161 617.2 2161C514.3 2161 411.7 2161 308.8 2161C206 2161 103 2161 51.5 2161L0 2161Z" fill="#0066FF" stroke-linecap="round" stroke-linejoin="miter"></path></svg>